<svg xmlns="http://www.w3.org/2000/svg" viewBox="0 0 1032 1034">
  <rect width="1032" height="1034" rx="200" fill="#f6f2eb"/>
  <path d="M520 60.5V95.5C749.198 95.5 935 281.302 935 510.5H970H1005C1005 242.642 787.858 25.5 520 25.5V60.5ZM970 510.5H935C935 739.698 749.198 925.5 520 925.5V960.5V995.5C787.858 995.5 1005 778.358 1005 510.5H970ZM520 960.5V925.5C290.802 925.5 105 739.698 105 510.5H70H35C35 778.358 252.142 995.5 520 995.5V960.5ZM70 510.5H105C105 281.302 290.802 95.5 520 95.5V60.5V25.5C252.142 25.5 35 242.642 35 510.5H70Z" fill="#A36A00"/>
  <line x1="157.353" y1="667.597" x2="406.097" y2="326.647" stroke="#A36A00" stroke-width="70" stroke-linecap="round"/>
  <path d="M670 319.5L887 664.5" stroke="#A36A00" stroke-width="70" stroke-linecap="round" fill="none"/>
  <line x1="666.449" y1="320.587" x2="413.587" y2="695.551" stroke="#A36A00" stroke-width="70" stroke-linecap="round"/>
  <line x1="520.44" y1="522.003" x2="794.439" y2="526.018" stroke="#A36A00" stroke-width="60"/>
  <line x1="413.32" y1="318.23" x2="650.73" y2="691.18" stroke="#A36A00" stroke-width="70" stroke-linecap="round"/>
</svg>
